<svg width="14" height="14" viewBox="0 0 14 14" fill="none" xmlns="http://www.w3.org/2000/svg">
<path d="M7.30494 0.00698853C6.42942 0.00698851 5.56247 0.179436 4.75359 0.514484C3.94471 0.849532 3.20975 1.34062 2.59066 1.95971C1.97157 2.5788 1.48048 3.31376 1.14543 4.12264C0.810387 4.93152 0.637939 5.79847 0.637939 6.67399C0.637939 7.54951 0.810387 8.41646 1.14543 9.22534C1.48048 10.0342 1.97157 10.7692 2.59066 11.3883C3.20975 12.0074 3.94471 12.4984 4.75359 12.8335C5.56247 13.1685 6.42942 13.341 7.30494 13.341C9.07314 13.341 10.7689 12.6386 12.0192 11.3883C13.2695 10.138 13.9719 8.44219 13.9719 6.67399C13.9719 4.90579 13.2695 3.21001 12.0192 1.95971C10.7689 0.709403 9.07314 0.00698855 7.30494 0.00698853V0.00698853ZM9.97194 7.34099H7.30494C7.12804 7.34099 6.95839 7.27072 6.8333 7.14563C6.70821 7.02054 6.63794 6.85089 6.63794 6.67399V4.00699C6.63794 3.83009 6.70821 3.66044 6.8333 3.53535C6.95839 3.41026 7.12804 3.33999 7.30494 3.33999C7.48184 3.33999 7.65149 3.41026 7.77658 3.53535C7.90167 3.66044 7.97194 3.83009 7.97194 4.00699V6.00699H9.97194C10.1488 6.00699 10.3185 6.07726 10.4436 6.20235C10.5687 6.32744 10.6389 6.49709 10.6389 6.67399C10.6389 6.85089 10.5687 7.02054 10.4436 7.14563C10.3185 7.27072 10.1488 7.34099 9.97194 7.34099Z" fill="#8BACD9"/>
</svg>
