<svg width="28" height="29" viewBox="0 0 28 29" fill="none" xmlns="http://www.w3.org/2000/svg">
<g clip-path="url(#clip0_208_456)">
<path d="M15.659 11.8063L15.6612 11.0196V11.0182C15.6612 10.8515 15.6658 10.7392 15.6796 10.655C15.6903 10.5901 15.7029 10.5662 15.7062 10.5608C15.7208 10.5489 15.8179 10.4873 16.189 10.4873H17.4778H17.9778V9.98734V7.41349V6.91349H17.4778H15.416C14.1 6.91349 13.1022 7.24592 12.4448 7.96202C11.7952 8.66958 11.5677 9.65578 11.5677 10.7615V11.8066H10.5239H10.0239V12.3066V14.8802V15.3802H10.5239H11.5677V22.3481V22.8481H12.0677H15.1577H15.6577V22.3481V15.3799H17.2192H17.6689L17.7164 14.9327L17.9896 12.3591L18.0483 11.8063H17.4924H15.659ZM15.7069 10.5598C15.7068 10.5598 15.7068 10.5599 15.7068 10.5599L15.7069 10.5598ZM15.7057 10.5612C15.7047 10.5623 15.7042 10.5628 15.7041 10.5628C15.7041 10.5628 15.7045 10.5622 15.7057 10.5612ZM0.5 14.2769C0.5 6.97195 6.4219 1.05005 13.7269 1.05005C21.0319 1.05005 26.9538 6.97195 26.9538 14.2769C26.9538 21.5819 21.0319 27.5038 13.7269 27.5038C6.4219 27.5038 0.5 21.5819 0.5 14.2769Z" stroke="white"/>
</g>
<defs>
<clipPath id="clip0_208_456">
<rect width="27.4538" height="27.4538" fill="white" transform="translate(0 0.550049)"/>
</clipPath>
</defs>
</svg>
