<svg width="720" height="500" viewBox="0 0 720 500" fill="none" xmlns="http://www.w3.org/2000/svg">
<g clip-path="url(#clip0_244_21)">
<g filter="url(#filter0_d_244_21)">
<path d="M661.036 6.917H21.0222C13.338 6.917 7.10864 12.9784 7.10864 20.4555V399.34C7.10864 406.817 13.338 412.878 21.0222 412.878H661.036C668.721 412.878 674.95 406.817 674.95 399.34V20.4555C674.95 12.9784 668.721 6.917 661.036 6.917Z" fill="black"/>
</g>
<path d="M661.036 6.917H21.0222C13.338 6.917 7.10864 12.9784 7.10864 20.4555V399.34C7.10864 406.817 13.338 412.878 21.0222 412.878H661.036C668.721 412.878 674.95 406.817 674.95 399.34V20.4555C674.95 12.9784 668.721 6.917 661.036 6.917Z" fill="white"/>
<g filter="url(#filter1_d_244_21)">
<path d="M21.0212 6.917H661.036C668.721 6.917 674.949 12.9783 674.949 20.4545V50.2194H7.10864V20.4555C7.10864 12.9783 13.3378 6.917 21.0212 6.917Z" fill="black"/>
</g>
<path d="M21.0212 6.917H661.036C668.721 6.917 674.949 12.9783 674.949 20.4545V50.2194H7.10864V20.4555C7.10864 12.9783 13.3378 6.917 21.0212 6.917Z" fill="#00252E"/>
<path d="M192.852 20.4486H60.6749C58.754 20.4486 57.1968 21.9639 57.1968 23.833V33.3024C57.1968 35.1715 58.754 36.6868 60.6749 36.6868H192.852C194.773 36.6868 196.33 35.1715 196.33 33.3024V23.833C196.33 21.9639 194.773 20.4486 192.852 20.4486Z" fill="#E1E8EE"/>
<path d="M629.036 21.8024H609.556C608.788 21.8024 608.166 22.408 608.166 23.1551V23.1561C608.166 23.9032 608.788 24.5089 609.556 24.5089H629.036C629.804 24.5089 630.427 23.9032 630.427 23.1561V23.1551C630.427 22.408 629.804 21.8024 629.036 21.8024Z" fill="#D8D8D8"/>
<path d="M629.036 27.2154H609.556C608.788 27.2154 608.166 27.8211 608.166 28.5682V28.5692C608.166 29.3163 608.788 29.9219 609.556 29.9219H629.036C629.804 29.9219 630.427 29.3163 630.427 28.5692V28.5682C630.427 27.8211 629.804 27.2154 629.036 27.2154Z" fill="#D8D8D8"/>
<path d="M629.036 32.6284H609.556C608.788 32.6284 608.166 33.2341 608.166 33.9812V33.9822C608.166 34.7293 608.788 35.335 609.556 35.335H629.036C629.804 35.335 630.427 34.7293 630.427 33.9822V33.9812C630.427 33.2341 629.804 32.6284 629.036 32.6284Z" fill="#D8D8D8"/>
<path d="M90.5889 165.243C109.031 165.243 123.981 150.703 123.981 132.766C123.981 114.829 109.031 100.289 90.5889 100.289C72.147 100.289 57.1968 114.829 57.1968 132.766C57.1968 150.703 72.147 165.243 90.5889 165.243Z" fill="url(#paint0_linear_244_21)"/>
<path d="M240.854 108.408H165.025C163.873 108.408 162.938 109.317 162.938 110.439V117.204C162.938 118.325 163.873 119.234 165.025 119.234H240.854C242.006 119.234 242.941 118.325 242.941 117.204V110.439C242.941 109.317 242.006 108.408 240.854 108.408Z" fill="#E1E8EE"/>
<path d="M439.119 130.059H165.025C163.873 130.059 162.938 130.968 162.938 132.09V133.442C162.938 134.563 163.873 135.472 165.025 135.472H439.119C440.271 135.472 441.206 134.563 441.206 133.442V132.09C441.206 130.968 440.271 130.059 439.119 130.059Z" fill="#E1E8EE"/>
<path d="M415.929 140.885H165.025C163.873 140.885 162.938 141.795 162.938 142.916V144.268C162.938 145.389 163.873 146.298 165.025 146.298H415.929C417.082 146.298 418.016 145.389 418.016 144.268V142.916C418.016 141.795 417.082 140.885 415.929 140.885Z" fill="#E1E8EE"/>
<path d="M392.74 151.71H165.025C163.873 151.71 162.938 152.62 162.938 153.741V155.093C162.938 156.214 163.873 157.124 165.025 157.124H392.74C393.893 157.124 394.827 156.214 394.827 155.093V153.741C394.827 152.62 393.893 151.71 392.74 151.71Z" fill="#E1E8EE"/>
<path d="M482.945 140.885C487.555 140.885 491.293 137.25 491.293 132.766C491.293 128.281 487.555 124.646 482.945 124.646C478.335 124.646 474.598 128.281 474.598 132.766C474.598 137.25 478.335 140.885 482.945 140.885Z" fill="#A7B9C8"/>
<path d="M527.468 140.885C532.079 140.885 535.816 137.25 535.816 132.766C535.816 128.281 532.079 124.646 527.468 124.646C522.858 124.646 519.121 128.281 519.121 132.766C519.121 137.25 522.858 140.885 527.468 140.885Z" fill="#A7B9C8"/>
<path d="M505.207 140.885C509.818 140.885 513.555 137.25 513.555 132.766C513.555 128.281 509.818 124.646 505.207 124.646C500.597 124.646 496.86 128.281 496.86 132.766C496.86 137.25 500.597 140.885 505.207 140.885Z" fill="#A7B9C8"/>
<path d="M549.729 140.885C554.34 140.885 558.077 137.25 558.077 132.766C558.077 128.281 554.34 124.646 549.729 124.646C545.119 124.646 541.382 128.281 541.382 132.766C541.382 137.25 545.119 140.885 549.729 140.885Z" fill="#A7B9C8"/>
<path d="M571.992 140.885C576.602 140.885 580.339 137.25 580.339 132.766C580.339 128.281 576.602 124.646 571.992 124.646C567.381 124.646 563.644 128.281 563.644 132.766C563.644 137.25 567.381 140.885 571.992 140.885Z" fill="#A7B9C8"/>
<path d="M88.5021 253.202C105.791 253.202 119.807 239.57 119.807 222.754C119.807 205.938 105.791 192.306 88.5021 192.306C71.2126 192.306 57.1968 205.938 57.1968 222.754C57.1968 239.57 71.2126 253.202 88.5021 253.202Z" fill="url(#paint1_linear_244_21)"/>
<path d="M238.766 198.395H162.937C161.785 198.395 160.85 199.304 160.85 200.426V207.191C160.85 208.312 161.785 209.221 162.937 209.221H238.766C239.918 209.221 240.853 208.312 240.853 207.191V200.426C240.853 199.304 239.918 198.395 238.766 198.395Z" fill="#E1E8EE"/>
<path d="M437.031 220.046H162.937C161.785 220.046 160.85 220.956 160.85 222.077V223.429C160.85 224.55 161.785 225.459 162.937 225.459H437.031C438.183 225.459 439.118 224.55 439.118 223.429V222.077C439.118 220.956 438.183 220.046 437.031 220.046Z" fill="#E1E8EE"/>
<path d="M413.842 230.873H162.937C161.785 230.873 160.85 231.782 160.85 232.903V234.255C160.85 235.376 161.785 236.286 162.937 236.286H413.842C414.994 236.286 415.928 235.376 415.928 234.255V232.903C415.928 231.782 414.994 230.873 413.842 230.873Z" fill="#E1E8EE"/>
<path d="M390.652 241.698H162.937C161.785 241.698 160.85 242.607 160.85 243.728V245.08C160.85 246.202 161.785 247.111 162.937 247.111H390.652C391.805 247.111 392.739 246.202 392.739 245.08V243.728C392.739 242.607 391.805 241.698 390.652 241.698Z" fill="#E1E8EE"/>
<path d="M480.858 230.873C485.468 230.873 489.206 227.238 489.206 222.754C489.206 218.27 485.468 214.634 480.858 214.634C476.248 214.634 472.511 218.27 472.511 222.754C472.511 227.238 476.248 230.873 480.858 230.873Z" fill="#A7B9C8"/>
<path d="M525.381 230.873C529.992 230.873 533.729 227.238 533.729 222.754C533.729 218.27 529.992 214.634 525.381 214.634C520.771 214.634 517.034 218.27 517.034 222.754C517.034 227.238 520.771 230.873 525.381 230.873Z" fill="#A7B9C8"/>
<path d="M503.12 230.873C507.731 230.873 511.468 227.238 511.468 222.754C511.468 218.27 507.731 214.634 503.12 214.634C498.51 214.634 494.773 218.27 494.773 222.754C494.773 227.238 498.51 230.873 503.12 230.873Z" fill="#A7B9C8"/>
<path d="M88.5021 349.957C105.791 349.957 119.807 336.325 119.807 319.509C119.807 302.693 105.791 289.061 88.5021 289.061C71.2126 289.061 57.1968 302.693 57.1968 319.509C57.1968 336.325 71.2126 349.957 88.5021 349.957Z" fill="url(#paint2_linear_244_21)"/>
<path d="M238.766 295.15H162.937C161.785 295.15 160.85 296.059 160.85 297.181V303.946C160.85 305.067 161.785 305.976 162.937 305.976H238.766C239.918 305.976 240.853 305.067 240.853 303.946V297.181C240.853 296.059 239.918 295.15 238.766 295.15Z" fill="#E1E8EE"/>
<path d="M437.031 316.801H162.937C161.785 316.801 160.85 317.711 160.85 318.832V320.184C160.85 321.305 161.785 322.214 162.937 322.214H437.031C438.183 322.214 439.118 321.305 439.118 320.184V318.832C439.118 317.711 438.183 316.801 437.031 316.801Z" fill="#E1E8EE"/>
<path d="M413.842 327.627H162.937C161.785 327.627 160.85 328.537 160.85 329.658V331.01C160.85 332.131 161.785 333.04 162.937 333.04H413.842C414.994 333.04 415.928 332.131 415.928 331.01V329.658C415.928 328.537 414.994 327.627 413.842 327.627Z" fill="#E1E8EE"/>
<path d="M390.652 338.453H162.937C161.785 338.453 160.85 339.362 160.85 340.483V341.835C160.85 342.956 161.785 343.866 162.937 343.866H390.652C391.805 343.866 392.739 342.956 392.739 341.835V340.483C392.739 339.362 391.805 338.453 390.652 338.453Z" fill="#E1E8EE"/>
<path d="M480.858 327.628C485.468 327.628 489.206 323.993 489.206 319.509C489.206 315.025 485.468 311.389 480.858 311.389C476.248 311.389 472.511 315.025 472.511 319.509C472.511 323.993 476.248 327.628 480.858 327.628Z" fill="#A7B9C8"/>
<path d="M525.381 327.628C529.992 327.628 533.729 323.993 533.729 319.509C533.729 315.025 529.992 311.389 525.381 311.389C520.771 311.389 517.034 315.025 517.034 319.509C517.034 323.993 520.771 327.628 525.381 327.628Z" fill="#A7B9C8"/>
<path d="M503.12 327.628C507.731 327.628 511.468 323.993 511.468 319.509C511.468 315.025 507.731 311.389 503.12 311.389C498.51 311.389 494.773 315.025 494.773 319.509C494.773 323.993 498.51 327.628 503.12 327.628Z" fill="#A7B9C8"/>
<path d="M547.643 327.628C552.253 327.628 555.99 323.993 555.99 319.509C555.99 315.025 552.253 311.389 547.643 311.389C543.032 311.389 539.295 315.025 539.295 319.509C539.295 323.993 543.032 327.628 547.643 327.628Z" fill="#A7B9C8"/>
<g filter="url(#filter2_d_244_21)">
<path d="M503.165 147.65H702.034C708.591 147.65 713.907 152.822 713.907 159.203V482.518C713.907 488.898 708.591 494.071 702.034 494.071H503.165C496.608 494.071 491.293 488.898 491.293 482.518V159.203C491.293 152.822 496.608 147.65 503.165 147.65Z" fill="black"/>
</g>
<path d="M503.165 147.65H702.034C708.591 147.65 713.907 152.822 713.907 159.203V482.518C713.907 488.898 708.591 494.071 702.034 494.071H503.165C496.608 494.071 491.293 488.898 491.293 482.518V159.203C491.293 152.822 496.608 147.65 503.165 147.65Z" fill="white"/>
<g filter="url(#filter3_d_244_21)">
<path d="M503.165 147.65H702.034C708.591 147.65 713.907 152.822 713.907 159.203V184.602H491.293V159.203C491.293 152.822 496.608 147.65 503.165 147.65Z" fill="black"/>
</g>
<path d="M503.165 147.65H702.034C708.591 147.65 713.907 152.822 713.907 159.203V184.602H491.293V159.203C491.293 152.822 496.608 147.65 503.165 147.65Z" fill="#00252E"/>
<path d="M583.028 160.353H516.616C514.976 160.353 513.647 161.646 513.647 163.241V171.321C513.647 172.916 514.976 174.209 516.616 174.209H583.028C584.668 174.209 585.997 172.916 585.997 171.321V163.241C585.997 161.646 584.668 160.353 583.028 160.353Z" fill="#E1E8EE"/>
<path d="M688.974 161.508H672.352C671.697 161.508 671.165 162.025 671.165 162.663C671.165 163.3 671.697 163.817 672.352 163.817H688.974C689.63 163.817 690.161 163.3 690.161 162.663C690.161 162.025 689.63 161.508 688.974 161.508Z" fill="#D8D8D8"/>
<path d="M688.974 166.126H672.352C671.697 166.126 671.165 166.643 671.165 167.281C671.165 167.919 671.697 168.436 672.352 168.436H688.974C689.63 168.436 690.161 167.919 690.161 167.281C690.161 166.643 689.63 166.126 688.974 166.126Z" fill="#D8D8D8"/>
<path d="M688.974 170.746H672.352C671.697 170.746 671.165 171.263 671.165 171.901C671.165 172.538 671.697 173.055 672.352 173.055H688.974C689.63 173.055 690.161 172.538 690.161 171.901C690.161 171.263 689.63 170.746 688.974 170.746Z" fill="#D8D8D8"/>
<path d="M523.99 241.022C529.754 241.022 534.426 236.478 534.426 230.873C534.426 225.267 529.754 220.723 523.99 220.723C518.227 220.723 513.555 225.267 513.555 230.873C513.555 236.478 518.227 241.022 523.99 241.022Z" fill="url(#paint3_linear_244_21)"/>
<path d="M584.917 222.753H546.196C545.842 222.753 545.556 223.032 545.556 223.375V225.739C545.556 226.083 545.842 226.362 546.196 226.362H584.917C585.271 226.362 585.557 226.083 585.557 225.739V223.375C585.557 223.032 585.271 222.753 584.917 222.753Z" fill="#E1E8EE"/>
<path d="M684.05 229.97H546.196C545.842 229.97 545.556 230.249 545.556 230.593V231.152C545.556 231.496 545.842 231.775 546.196 231.775H684.05C684.403 231.775 684.69 231.496 684.69 231.152V230.593C684.69 230.249 684.403 229.97 684.05 229.97Z" fill="#E1E8EE"/>
<path d="M672.456 233.579H546.196C545.842 233.579 545.556 233.858 545.556 234.202V234.761C545.556 235.105 545.842 235.383 546.196 235.383H672.456C672.809 235.383 673.095 235.105 673.095 234.761V234.202C673.095 233.858 672.809 233.579 672.456 233.579Z" fill="#E1E8EE"/>
<path d="M660.86 237.187H546.196C545.842 237.187 545.556 237.465 545.556 237.809V238.369C545.556 238.712 545.842 238.991 546.196 238.991H660.86C661.214 238.991 661.5 238.712 661.5 238.369V237.809C661.5 237.465 661.214 237.187 660.86 237.187Z" fill="#E1E8EE"/>
<path d="M523.99 334.393C529.754 334.393 534.426 329.849 534.426 324.244C534.426 318.639 529.754 314.095 523.99 314.095C518.227 314.095 513.555 318.639 513.555 324.244C513.555 329.849 518.227 334.393 523.99 334.393Z" fill="url(#paint4_linear_244_21)"/>
<path d="M584.917 316.125H546.196C545.842 316.125 545.556 316.403 545.556 316.747V319.111C545.556 319.454 545.842 319.733 546.196 319.733H584.917C585.271 319.733 585.557 319.454 585.557 319.111V316.747C585.557 316.403 585.271 316.125 584.917 316.125Z" fill="#E1E8EE"/>
<path d="M684.05 323.342H546.196C545.842 323.342 545.556 323.621 545.556 323.964V324.524C545.556 324.868 545.842 325.146 546.196 325.146H684.05C684.403 325.146 684.69 324.868 684.69 324.524V323.964C684.69 323.621 684.403 323.342 684.05 323.342Z" fill="#E1E8EE"/>
<path d="M672.456 326.951H546.196C545.842 326.951 545.556 327.229 545.556 327.573V328.132C545.556 328.476 545.842 328.755 546.196 328.755H672.456C672.809 328.755 673.095 328.476 673.095 328.132V327.573C673.095 327.229 672.809 326.951 672.456 326.951Z" fill="#E1E8EE"/>
<path d="M660.86 330.558H546.196C545.842 330.558 545.556 330.837 545.556 331.181V331.74C545.556 332.084 545.842 332.363 546.196 332.363H660.86C661.214 332.363 661.5 332.084 661.5 331.74V331.181C661.5 330.837 661.214 330.558 660.86 330.558Z" fill="#E1E8EE"/>
<path d="M584.917 253.877H546.196C545.842 253.877 545.556 254.156 545.556 254.5V256.864C545.556 257.207 545.842 257.486 546.196 257.486H584.917C585.271 257.486 585.557 257.207 585.557 256.864V254.5C585.557 254.156 585.271 253.877 584.917 253.877Z" fill="#E1E8EE"/>
<path d="M684.05 261.095H546.196C545.842 261.095 545.556 261.374 545.556 261.717V262.277C545.556 262.62 545.842 262.899 546.196 262.899H684.05C684.403 262.899 684.69 262.62 684.69 262.277V261.717C684.69 261.374 684.403 261.095 684.05 261.095Z" fill="#E1E8EE"/>
<path d="M672.456 264.704H546.196C545.842 264.704 545.556 264.982 545.556 265.326V265.885C545.556 266.229 545.842 266.508 546.196 266.508H672.456C672.809 266.508 673.095 266.229 673.095 265.885V265.326C673.095 264.982 672.809 264.704 672.456 264.704Z" fill="#E1E8EE"/>
<path d="M660.86 268.311H546.196C545.842 268.311 545.556 268.59 545.556 268.934V269.493C545.556 269.837 545.842 270.116 546.196 270.116H660.86C661.214 270.116 661.5 269.837 661.5 269.493V268.934C661.5 268.59 661.214 268.311 660.86 268.311Z" fill="#E1E8EE"/>
<path d="M523.99 272.146C529.754 272.146 534.426 267.602 534.426 261.997C534.426 256.392 529.754 251.848 523.99 251.848C518.227 251.848 513.555 256.392 513.555 261.997C513.555 267.602 518.227 272.146 523.99 272.146Z" fill="url(#paint5_linear_244_21)"/>
<path d="M584.917 347.248H546.196C545.842 347.248 545.556 347.527 545.556 347.871V350.234C545.556 350.578 545.842 350.857 546.196 350.857H584.917C585.271 350.857 585.557 350.578 585.557 350.234V347.871C585.557 347.527 585.271 347.248 584.917 347.248Z" fill="#E1E8EE"/>
<path d="M684.05 354.465H546.196C545.842 354.465 545.556 354.744 545.556 355.088V355.647C545.556 355.991 545.842 356.27 546.196 356.27H684.05C684.403 356.27 684.69 355.991 684.69 355.647V355.088C684.69 354.744 684.403 354.465 684.05 354.465Z" fill="#E1E8EE"/>
<path d="M672.456 358.074H546.196C545.842 358.074 545.556 358.353 545.556 358.697V359.256C545.556 359.6 545.842 359.878 546.196 359.878H672.456C672.809 359.878 673.095 359.6 673.095 359.256V358.697C673.095 358.353 672.809 358.074 672.456 358.074Z" fill="#E1E8EE"/>
<path d="M660.86 361.682H546.196C545.842 361.682 545.556 361.961 545.556 362.304V362.864C545.556 363.207 545.842 363.486 546.196 363.486H660.86C661.214 363.486 661.5 363.207 661.5 362.864V362.304C661.5 361.961 661.214 361.682 660.86 361.682Z" fill="#E1E8EE"/>
<path d="M523.99 365.517C529.754 365.517 534.426 360.973 534.426 355.368C534.426 349.762 529.754 345.218 523.99 345.218C518.227 345.218 513.555 349.762 513.555 355.368C513.555 360.973 518.227 365.517 523.99 365.517Z" fill="url(#paint6_linear_244_21)"/>
<path d="M584.917 285.001H546.196C545.842 285.001 545.556 285.28 545.556 285.624V287.987C545.556 288.331 545.842 288.61 546.196 288.61H584.917C585.271 288.61 585.557 288.331 585.557 287.987V285.624C585.557 285.28 585.271 285.001 584.917 285.001Z" fill="#E1E8EE"/>
<path d="M684.05 292.218H546.196C545.842 292.218 545.556 292.497 545.556 292.841V293.4C545.556 293.744 545.842 294.023 546.196 294.023H684.05C684.403 294.023 684.69 293.744 684.69 293.4V292.841C684.69 292.497 684.403 292.218 684.05 292.218Z" fill="#E1E8EE"/>
<path d="M672.456 295.827H546.196C545.842 295.827 545.556 296.106 545.556 296.45V297.009C545.556 297.353 545.842 297.631 546.196 297.631H672.456C672.809 297.631 673.095 297.353 673.095 297.009V296.45C673.095 296.106 672.809 295.827 672.456 295.827Z" fill="#E1E8EE"/>
<path d="M660.86 299.435H546.196C545.842 299.435 545.556 299.714 545.556 300.057V300.617C545.556 300.96 545.842 301.239 546.196 301.239H660.86C661.214 301.239 661.5 300.96 661.5 300.617V300.057C661.5 299.714 661.214 299.435 660.86 299.435Z" fill="#E1E8EE"/>
<path d="M523.99 303.27C529.754 303.27 534.426 298.726 534.426 293.121C534.426 287.515 529.754 282.971 523.99 282.971C518.227 282.971 513.555 287.515 513.555 293.121C513.555 298.726 518.227 303.27 523.99 303.27Z" fill="url(#paint7_linear_244_21)"/>
<path d="M584.917 378.372H546.196C545.842 378.372 545.556 378.65 545.556 378.994V381.358C545.556 381.702 545.842 381.98 546.196 381.98H584.917C585.271 381.98 585.557 381.702 585.557 381.358V378.994C585.557 378.65 585.271 378.372 584.917 378.372Z" fill="#E1E8EE"/>
<path d="M684.05 385.589H546.196C545.842 385.589 545.556 385.868 545.556 386.211V386.771C545.556 387.115 545.842 387.393 546.196 387.393H684.05C684.403 387.393 684.69 387.115 684.69 386.771V386.211C684.69 385.868 684.403 385.589 684.05 385.589Z" fill="#E1E8EE"/>
<path d="M672.456 389.198H546.196C545.842 389.198 545.556 389.476 545.556 389.82V390.379C545.556 390.723 545.842 391.002 546.196 391.002H672.456C672.809 391.002 673.095 390.723 673.095 390.379V389.82C673.095 389.476 672.809 389.198 672.456 389.198Z" fill="#E1E8EE"/>
<path d="M660.86 392.805H546.196C545.842 392.805 545.556 393.084 545.556 393.428V393.987C545.556 394.331 545.842 394.61 546.196 394.61H660.86C661.214 394.61 661.5 394.331 661.5 393.987V393.428C661.5 393.084 661.214 392.805 660.86 392.805Z" fill="#E1E8EE"/>
<path d="M523.99 396.64C529.754 396.64 534.426 392.096 534.426 386.491C534.426 380.886 529.754 376.342 523.99 376.342C518.227 376.342 513.555 380.886 513.555 386.491C513.555 392.096 518.227 396.64 523.99 396.64Z" fill="url(#paint8_linear_244_21)"/>
<path d="M523.99 427.765C529.754 427.765 534.426 423.221 534.426 417.616C534.426 412.01 529.754 407.466 523.99 407.466C518.227 407.466 513.555 412.01 513.555 417.616C513.555 423.221 518.227 427.765 523.99 427.765Z" fill="url(#paint9_linear_244_21)"/>
<path d="M584.917 409.496H546.196C545.842 409.496 545.556 409.775 545.556 410.119V412.482C545.556 412.826 545.842 413.105 546.196 413.105H584.917C585.271 413.105 585.557 412.826 585.557 412.482V410.119C585.557 409.775 585.271 409.496 584.917 409.496Z" fill="#E1E8EE"/>
<path d="M684.05 416.713H546.196C545.842 416.713 545.556 416.992 545.556 417.336V417.895C545.556 418.239 545.842 418.518 546.196 418.518H684.05C684.403 418.518 684.69 418.239 684.69 417.895V417.336C684.69 416.992 684.403 416.713 684.05 416.713Z" fill="#E1E8EE"/>
<path d="M672.456 420.322H546.196C545.842 420.322 545.556 420.601 545.556 420.945V421.504C545.556 421.848 545.842 422.126 546.196 422.126H672.456C672.809 422.126 673.095 421.848 673.095 421.504V420.945C673.095 420.601 672.809 420.322 672.456 420.322Z" fill="#E1E8EE"/>
<path d="M660.86 423.93H546.196C545.842 423.93 545.556 424.209 545.556 424.552V425.112C545.556 425.455 545.842 425.734 546.196 425.734H660.86C661.214 425.734 661.5 425.455 661.5 425.112V424.552C661.5 424.209 661.214 423.93 660.86 423.93Z" fill="#E1E8EE"/>
<path d="M584.917 440.62H546.196C545.842 440.62 545.556 440.898 545.556 441.242V443.606C545.556 443.95 545.842 444.228 546.196 444.228H584.917C585.271 444.228 585.557 443.95 585.557 443.606V441.242C585.557 440.898 585.271 440.62 584.917 440.62Z" fill="#E1E8EE"/>
<path d="M684.05 447.837H546.196C545.842 447.837 545.556 448.116 545.556 448.46V449.019C545.556 449.363 545.842 449.641 546.196 449.641H684.05C684.403 449.641 684.69 449.363 684.69 449.019V448.46C684.69 448.116 684.403 447.837 684.05 447.837Z" fill="#E1E8EE"/>
<path d="M672.456 451.446H546.196C545.842 451.446 545.556 451.724 545.556 452.068V452.627C545.556 452.971 545.842 453.25 546.196 453.25H672.456C672.809 453.25 673.095 452.971 673.095 452.627V452.068C673.095 451.724 672.809 451.446 672.456 451.446Z" fill="#E1E8EE"/>
<path d="M660.86 455.053H546.196C545.842 455.053 545.556 455.332 545.556 455.676V456.235C545.556 456.579 545.842 456.858 546.196 456.858H660.86C661.214 456.858 661.5 456.579 661.5 456.235V455.676C661.5 455.332 661.214 455.053 660.86 455.053Z" fill="#E1E8EE"/>
<path d="M523.99 458.888C529.754 458.888 534.426 454.344 534.426 448.739C534.426 443.134 529.754 438.59 523.99 438.59C518.227 438.59 513.555 443.134 513.555 448.739C513.555 454.344 518.227 458.888 523.99 458.888Z" fill="url(#paint10_linear_244_21)"/>
</g>
<defs>
<filter id="filter0_d_244_21" x="0.108643" y="-0.083004" width="681.841" height="419.961" filterUnits="userSpaceOnUse" color-interpolation-filters="sRGB">
<feFlood flood-opacity="0" result="BackgroundImageFix"/>
<feColorMatrix in="SourceAlpha" type="matrix" values="0 0 0 0 0 0 0 0 0 0 0 0 0 0 0 0 0 0 127 0" result="hardAlpha"/>
<feOffset/>
<feGaussianBlur stdDeviation="3.5"/>
<feColorMatrix type="matrix" values="0 0 0 0 0 0 0 0 0 0.145098 0 0 0 0 0.180392 0 0 0 0.181839 0"/>
<feBlend mode="normal" in2="BackgroundImageFix" result="effect1_dropShadow_244_21"/>
<feBlend mode="normal" in="SourceGraphic" in2="effect1_dropShadow_244_21" result="shape"/>
</filter>
<filter id="filter1_d_244_21" x="0.108643" y="-0.083004" width="681.84" height="57.3024" filterUnits="userSpaceOnUse" color-interpolation-filters="sRGB">
<feFlood flood-opacity="0" result="BackgroundImageFix"/>
<feColorMatrix in="SourceAlpha" type="matrix" values="0 0 0 0 0 0 0 0 0 0 0 0 0 0 0 0 0 0 127 0" result="hardAlpha"/>
<feOffset/>
<feGaussianBlur stdDeviation="3.5"/>
<feColorMatrix type="matrix" values="0 0 0 0 0 0 0 0 0 0.145098 0 0 0 0 0.180392 0 0 0 0.181839 0"/>
<feBlend mode="normal" in2="BackgroundImageFix" result="effect1_dropShadow_244_21"/>
<feBlend mode="normal" in="SourceGraphic" in2="effect1_dropShadow_244_21" result="shape"/>
</filter>
<filter id="filter2_d_244_21" x="485.293" y="141.65" width="234.614" height="358.421" filterUnits="userSpaceOnUse" color-interpolation-filters="sRGB">
<feFlood flood-opacity="0" result="BackgroundImageFix"/>
<feColorMatrix in="SourceAlpha" type="matrix" values="0 0 0 0 0 0 0 0 0 0 0 0 0 0 0 0 0 0 127 0" result="hardAlpha"/>
<feOffset/>
<feGaussianBlur stdDeviation="3"/>
<feColorMatrix type="matrix" values="0 0 0 0 0 0 0 0 0 0.145098 0 0 0 0 0.180392 0 0 0 0.181839 0"/>
<feBlend mode="normal" in2="BackgroundImageFix" result="effect1_dropShadow_244_21"/>
<feBlend mode="normal" in="SourceGraphic" in2="effect1_dropShadow_244_21" result="shape"/>
</filter>
<filter id="filter3_d_244_21" x="485.293" y="141.65" width="234.614" height="48.9516" filterUnits="userSpaceOnUse" color-interpolation-filters="sRGB">
<feFlood flood-opacity="0" result="BackgroundImageFix"/>
<feColorMatrix in="SourceAlpha" type="matrix" values="0 0 0 0 0 0 0 0 0 0 0 0 0 0 0 0 0 0 127 0" result="hardAlpha"/>
<feOffset/>
<feGaussianBlur stdDeviation="3"/>
<feColorMatrix type="matrix" values="0 0 0 0 0 0 0 0 0 0.145098 0 0 0 0 0.180392 0 0 0 0.181839 0"/>
<feBlend mode="normal" in2="BackgroundImageFix" result="effect1_dropShadow_244_21"/>
<feBlend mode="normal" in="SourceGraphic" in2="effect1_dropShadow_244_21" result="shape"/>
</filter>
<linearGradient id="paint0_linear_244_21" x1="67.0882" y1="85.7634" x2="106.073" y2="178.636" gradientUnits="userSpaceOnUse">
<stop stop-color="#FAD961"/>
<stop offset="1" stop-color="#FF52C1"/>
</linearGradient>
<linearGradient id="paint1_linear_244_21" x1="88.5021" y1="192.306" x2="88.5021" y2="253.202" gradientUnits="userSpaceOnUse">
<stop stop-color="#00C7FA"/>
<stop offset="1" stop-color="#007DFA"/>
</linearGradient>
<linearGradient id="paint2_linear_244_21" x1="75.3369" y1="289.061" x2="112.061" y2="357.666" gradientUnits="userSpaceOnUse">
<stop stop-color="#FF52C1"/>
<stop offset="1" stop-color="#9952FF"/>
</linearGradient>
<linearGradient id="paint3_linear_244_21" x1="516.646" y1="216.184" x2="528.829" y2="245.207" gradientUnits="userSpaceOnUse">
<stop stop-color="#FAD961"/>
<stop offset="1" stop-color="#FF52C1"/>
</linearGradient>
<linearGradient id="paint4_linear_244_21" x1="516.646" y1="309.556" x2="528.829" y2="338.579" gradientUnits="userSpaceOnUse">
<stop stop-color="#FAD961"/>
<stop offset="1" stop-color="#FF52C1"/>
</linearGradient>
<linearGradient id="paint5_linear_244_21" x1="523.99" y1="251.848" x2="523.99" y2="272.146" gradientUnits="userSpaceOnUse">
<stop stop-color="#00C7FA"/>
<stop offset="1" stop-color="#007DFA"/>
</linearGradient>
<linearGradient id="paint6_linear_244_21" x1="523.99" y1="345.218" x2="523.99" y2="365.517" gradientUnits="userSpaceOnUse">
<stop stop-color="#00C7FA"/>
<stop offset="1" stop-color="#007DFA"/>
</linearGradient>
<linearGradient id="paint7_linear_244_21" x1="519.602" y1="282.971" x2="531.843" y2="305.84" gradientUnits="userSpaceOnUse">
<stop stop-color="#FF52C1"/>
<stop offset="1" stop-color="#9952FF"/>
</linearGradient>
<linearGradient id="paint8_linear_244_21" x1="519.602" y1="376.342" x2="531.843" y2="399.21" gradientUnits="userSpaceOnUse">
<stop stop-color="#FF52C1"/>
<stop offset="1" stop-color="#9952FF"/>
</linearGradient>
<linearGradient id="paint9_linear_244_21" x1="516.646" y1="402.927" x2="528.829" y2="431.95" gradientUnits="userSpaceOnUse">
<stop stop-color="#FAD961"/>
<stop offset="1" stop-color="#FF52C1"/>
</linearGradient>
<linearGradient id="paint10_linear_244_21" x1="523.99" y1="438.59" x2="523.99" y2="458.888" gradientUnits="userSpaceOnUse">
<stop stop-color="#00C7FA"/>
<stop offset="1" stop-color="#007DFA"/>
</linearGradient>
<clipPath id="clip0_244_21">
<rect width="720" height="500" fill="white"/>
</clipPath>
</defs>
</svg>
