<svg width="29" height="29" viewBox="0 0 29 29" fill="none" xmlns="http://www.w3.org/2000/svg">
<g clip-path="url(#clip0_208_462)">
<path d="M7.49729 11.4192H6.99729V11.9192V21.266V21.766H7.49729H10.6081H11.1081V21.266V11.9192V11.4192H10.6081H7.49729ZM11.313 9.02795H11.3131L11.3129 9.01693C11.3002 8.44013 11.0853 7.90677 10.6819 7.51735C10.2777 7.12706 9.71781 6.91349 9.07325 6.91349C8.43017 6.91349 7.86247 7.126 7.45145 7.51305C7.03945 7.90104 6.81335 8.43853 6.81335 9.02795C6.81335 10.2136 7.72466 11.1435 9.03288 11.1435H9.05278C9.70808 11.1435 10.2771 10.9246 10.6856 10.5333C11.0937 10.1422 11.313 9.60553 11.313 9.02795ZM21.8268 21.766H22.3268L22.3268 21.266L22.3269 15.9068C22.3269 14.3852 21.9193 13.1983 21.1711 12.3876C20.4193 11.573 19.3799 11.1998 18.2452 11.1998C17.3201 11.1998 16.6227 11.4562 16.0942 11.8217C16.0413 11.8583 15.9903 11.8958 15.9412 11.9341V11.9195V11.4195H15.4412H12.33H11.8061L11.8306 11.9429C11.8503 12.3653 11.8505 14.6828 11.8454 16.9206C11.8428 18.0338 11.839 19.1196 11.8358 19.9271L11.8317 20.8983L11.8305 21.1686L11.8301 21.2395L11.8301 21.2577L11.83 21.2623L11.83 21.2634L11.83 21.2637L12.33 21.2662L11.83 21.2638L11.8276 21.7662H12.33H15.4412H15.9412V21.2662V16.0462C15.9412 15.7693 15.9647 15.579 16.0061 15.4785L16.0074 15.4751C16.1844 15.0358 16.5509 14.6524 17.1398 14.6524C17.5558 14.6524 17.7869 14.7993 17.9372 15.0197C18.1093 15.2719 18.2161 15.683 18.2161 16.2655V21.266V21.766H18.7161H21.8268ZM1.40747 14.2769C1.40747 6.97195 7.32937 1.05005 14.6344 1.05005C21.9394 1.05005 27.8613 6.97195 27.8613 14.2769C27.8613 21.5819 21.9394 27.5038 14.6344 27.5038C7.32937 27.5038 1.40747 21.5819 1.40747 14.2769Z" stroke="white"/>
</g>
<defs>
<clipPath id="clip0_208_462">
<rect width="27.4538" height="27.4538" fill="white" transform="translate(0.907471 0.550049)"/>
</clipPath>
</defs>
</svg>
