<svg width="102" height="17" viewBox="0 0 102 17" fill="none" xmlns="http://www.w3.org/2000/svg">
<path d="M11.9023 0.273757C8.61388 0.271531 5.18357 1.01268 1.71933 1.97361C1.27976 2.06264 0.849647 2.34975 0.623742 2.70585C0.415086 3.04081 0.338857 3.37745 0.273756 3.73188C-0.0628758 5.61647 -0.021701 7.46822 0.047851 9.5175C0.0628742 9.98712 0.134652 10.5458 0.352211 10.8829C0.582567 11.224 0.973728 11.441 1.44279 11.5128C2.04539 11.6041 2.64465 11.6742 3.24502 11.737L3.11259 15.4406C3.09034 15.7338 3.23612 15.9797 3.41473 16.121C3.57553 16.2423 3.75414 16.2969 3.93609 16.3102C4.3011 16.3381 4.73176 16.1795 4.94487 15.7755C5.87965 13.9755 6.46611 13.1826 7.63347 11.9863C10.6826 12.0631 13.3429 11.8934 16.3536 11.6692C17.4186 11.6436 18.1509 10.7717 18.3445 10.0761C18.9204 8.27447 19.0116 6.05103 19.0723 3.80144C19.0984 2.91006 18.7896 2.03648 18.2421 1.57355C17.7207 1.15178 17.0926 0.99988 16.5144 0.843527C14.9103 0.480187 13.3061 0.284885 11.9017 0.273757H11.9023ZM16.2841 1.68205C16.8622 1.83896 17.373 1.99086 17.6918 2.25182C18.2293 2.82103 18.2115 3.20162 18.2054 3.81646C18.1442 5.9965 18.0401 8.11366 17.5466 9.71781C17.3335 10.3154 16.9662 10.7416 16.2668 10.8045C13.1976 11.0326 10.5352 11.209 7.45097 11.1194C7.39113 11.1176 7.33155 11.1281 7.27588 11.1501C7.2202 11.1721 7.16959 11.2052 7.12713 11.2474C5.83124 12.5561 5.16855 13.4675 4.1798 15.3688C4.15754 15.4122 4.10746 15.4383 4.04515 15.4428C4.0062 15.4406 3.98839 15.4077 3.98617 15.3799L4.11859 11.3626C4.11905 11.2541 4.08009 11.1492 4.00895 11.0673C3.93782 10.9854 3.83935 10.9321 3.73188 10.9174C3.01169 10.8481 2.29347 10.7596 1.578 10.652C1.26918 10.6064 1.15623 10.5218 1.07166 10.3961C0.92365 10.0439 0.925876 9.82631 0.915304 9.48912C0.845196 7.45487 0.812924 5.67934 1.1234 3.91216C1.15401 3.64953 1.25194 3.3819 1.35599 3.16044C1.52847 2.89058 1.7911 2.85163 2.05596 2.77763C5.44231 1.84285 8.75521 1.14344 11.8761 1.14121C13.4063 1.19518 15.0104 1.34987 16.2841 1.68205ZM4.58598 5.12738C4.11859 5.68602 4.16422 6.44441 4.52478 6.95298C4.71396 7.22006 5.00775 7.43317 5.36441 7.48157C5.82957 7.52052 6.12503 7.33134 6.44219 7.11601C7.01808 6.61635 7.0765 5.74222 6.63805 5.11013C6.532 4.95555 6.39164 4.8276 6.22793 4.73628C6.06422 4.64497 5.8816 4.59277 5.69436 4.58376C5.1947 4.58821 4.85584 4.81022 4.58598 5.12738ZM9.63268 4.67111C9.16807 4.68614 8.79193 5.00775 8.56158 5.35551C8.30006 5.75056 8.14649 6.24855 8.35904 6.73764C8.76801 7.67465 10.1807 7.66352 10.7438 6.70982C11.002 6.27025 10.9369 5.77059 10.7438 5.41004C10.5502 5.0467 10.2586 4.75124 9.83521 4.68391C9.76826 4.67328 9.70044 4.66899 9.63268 4.67111ZM13.7301 4.75792C13.5843 4.7542 13.4387 4.77029 13.2972 4.80577C12.7386 4.956 12.2629 5.53133 12.3346 6.26859C12.3714 6.64027 12.5411 7.00305 12.8499 7.25066C13.1581 7.50105 13.6038 7.61177 14.0757 7.51607C14.6165 7.40479 14.9537 6.968 15.0644 6.54679C15.1774 6.12503 15.1495 5.69659 14.8886 5.34883C14.7534 5.16848 14.5787 5.02147 14.3779 4.91904C14.1771 4.81662 13.9555 4.7615 13.7301 4.75792ZM5.65708 5.44898C5.75946 5.45121 5.84181 5.48348 5.92639 5.60534C6.11557 5.87909 6.06327 6.29251 5.87242 6.45944C5.68324 6.62469 5.56361 6.64027 5.47903 6.62914C5.39612 6.61635 5.31155 6.55959 5.23532 6.45332C5.09176 6.24856 5.04836 5.9186 5.23977 5.68157C5.33993 5.54691 5.52688 5.46178 5.65708 5.44898ZM9.69333 5.54469C9.70835 5.54691 9.89085 5.65319 9.97821 5.81622C10.065 5.97925 10.08 6.12948 9.99769 6.26859C9.75175 6.6859 9.22983 6.57239 9.15193 6.39211C9.12133 6.32256 9.14359 6.04435 9.28659 5.82957C9.43014 5.61201 9.6082 5.53133 9.69277 5.54469H9.69333ZM14.1903 5.86185C14.2164 5.89912 14.2815 6.1356 14.2315 6.32256C14.1814 6.51174 14.099 6.62692 13.8987 6.66809C13.6428 6.72262 13.4992 6.66809 13.3902 6.58129C13.2839 6.49449 13.2099 6.34648 13.1949 6.1879C13.1559 5.79674 13.2967 5.70549 13.5209 5.64651C13.7796 5.58141 14.0729 5.69436 14.1903 5.86185ZM24.5235 2.02591C24.5298 1.91571 24.5727 1.81077 24.6453 1.72767C24.6816 1.68435 24.7272 1.64988 24.7788 1.62693C24.8304 1.60398 24.8866 1.59314 24.943 1.59525H27.8492C27.9471 1.59525 28.0495 1.63642 28.1536 1.7171C28.2022 1.75248 28.2417 1.79896 28.2688 1.85266C28.2959 1.90637 28.3098 1.96576 28.3093 2.02591V6.6642H33.1724V2.02591C33.172 1.96837 33.1832 1.91134 33.2054 1.85824C33.2276 1.80514 33.2603 1.75707 33.3015 1.7169C33.3427 1.67674 33.3916 1.64531 33.4452 1.6245C33.4989 1.60369 33.5562 1.59393 33.6137 1.5958H36.4798C36.6105 1.5958 36.7235 1.62807 36.8214 1.69317C36.9193 1.75828 36.9689 1.86288 36.9689 2.00588V15.6948C36.9689 15.8384 36.9255 15.9452 36.8409 16.0164C36.7563 16.0882 36.645 16.1249 36.5081 16.1249H33.6131C33.4969 16.1295 33.3831 16.0909 33.2937 16.0164C33.213 15.9447 33.1719 15.8384 33.1719 15.6948V10.1373H28.3099V15.6948C28.3099 15.8317 28.2665 15.9385 28.1775 16.012C28.0901 16.0882 27.971 16.1249 27.8208 16.1249H24.943C24.6693 16.1249 24.5302 15.997 24.5235 15.7427V2.02591ZM51.2927 15.958C51.2156 16.0255 51.1228 16.0726 51.0228 16.0949C50.9343 16.1139 50.8441 16.124 50.7535 16.1249H49.2757C49.1583 16.1249 49.0581 16.1032 48.9735 16.0621C48.8906 16.0206 48.8173 15.9622 48.7582 15.8907C48.6976 15.8161 48.6478 15.7333 48.6102 15.6448C48.5708 15.553 48.538 15.4586 48.5123 15.3621L48.2101 14.1102C48.1128 14.3127 47.9692 14.5408 47.7845 14.7996C47.5825 15.072 47.3439 15.3154 47.0756 15.5229C46.7633 15.7624 46.4169 15.9537 46.0479 16.0904C45.6501 16.2446 45.1938 16.3208 44.6786 16.3208C43.9352 16.3208 43.2597 16.1772 42.6532 15.8907C42.0588 15.613 41.5298 15.2129 41.1008 14.7167C40.6751 14.2214 40.3441 13.6411 40.1098 12.9806C39.8719 12.2994 39.7528 11.5823 39.7576 10.8607V4.45356C39.7576 4.20595 39.8099 4.01677 39.919 3.89046C40.0247 3.76249 40.1972 3.69906 40.4314 3.69906H42.6922C42.972 3.69906 43.1634 3.74691 43.2703 3.84038C43.3743 3.93609 43.4261 4.11859 43.4261 4.39458V10.7633C43.4261 11.0437 43.4895 11.3086 43.6152 11.5607C43.8733 12.0664 44.3034 12.4635 44.8282 12.6802C45.0936 12.7915 45.363 12.8471 45.6373 12.8471C45.8715 12.8471 46.1152 12.7915 46.3651 12.6802C46.6171 12.5689 46.8475 12.4214 47.0606 12.2367C47.2715 12.0498 47.4473 11.8305 47.5847 11.5801C47.7216 11.3281 47.7889 11.0627 47.7889 10.7828V4.42295C47.7889 4.31223 47.8106 4.2015 47.8518 4.09077C47.8884 3.98858 47.9551 3.89991 48.0432 3.83649C48.1278 3.78419 48.2085 3.74746 48.2825 3.72743C48.3581 3.70796 48.4449 3.69961 48.5429 3.69961H50.7535C51.0339 3.69961 51.2359 3.76638 51.36 3.90382C51.4835 4.04069 51.547 4.22543 51.547 4.45356V15.4016C51.547 15.5251 51.5186 15.6381 51.4618 15.7427C51.4103 15.8443 51.3313 15.9293 51.2337 15.9881L51.2927 15.958ZM62.6514 14.6082C62.475 14.784 62.2797 14.9732 62.0688 15.1757C61.8557 15.3777 61.6231 15.5669 61.3688 15.7427C61.1145 15.9185 60.8402 16.0643 60.547 16.1795C60.2436 16.2943 59.9216 16.3518 59.5972 16.3492C58.7108 16.3492 57.8934 16.1839 57.1478 15.8512C56.4192 15.5317 55.7633 15.0674 55.2199 14.4863C54.6807 13.9082 54.2617 13.2277 53.9568 12.4454C53.6552 11.663 53.5028 10.8217 53.5028 9.92202C53.5028 9.01561 53.6552 8.17208 53.9574 7.39199C54.2612 6.61412 54.6807 5.93585 55.2204 5.35773C55.7627 4.77675 56.4188 4.31365 57.1478 3.99729C57.8934 3.66901 58.7108 3.50375 59.5972 3.50375C59.932 3.4998 60.265 3.55267 60.582 3.66011C60.868 3.75897 61.1403 3.89338 61.3927 4.06017C61.6381 4.22543 61.8624 4.40793 62.0688 4.61436C62.273 4.81856 62.4689 5.02054 62.6514 5.2164V0.742816C62.6514 0.534716 62.7142 0.358889 62.8405 0.215333C62.9685 0.0717778 63.1599 0 63.4137 0H65.6159C65.7005 0 65.7896 0.0194743 65.883 0.0545286C65.9787 0.091252 66.0655 0.141329 66.144 0.20643C66.2219 0.271531 66.2853 0.349986 66.3332 0.441238C66.3832 0.53249 66.4072 0.632645 66.4072 0.743372V15.371C66.4072 15.8729 66.144 16.1249 65.6159 16.1249H63.6963C63.5661 16.1249 63.466 16.1083 63.3947 16.0749C63.3235 16.044 63.2613 15.9955 63.2139 15.9341C63.1584 15.8628 63.1137 15.7837 63.0815 15.6993C63.0425 15.6058 62.9924 15.4951 62.9335 15.371L62.6514 14.6082ZM57.0238 9.92202C57.0238 10.3521 57.0911 10.7544 57.2263 11.1306C57.3502 11.4899 57.5445 11.8209 57.7977 12.1043C58.0453 12.378 58.343 12.5956 58.6936 12.7542C59.0408 12.915 59.428 12.9934 59.8515 12.9934C60.2688 12.9934 60.6622 12.9194 61.0316 12.7692C61.3989 12.619 61.721 12.4131 61.9942 12.1477C62.2703 11.8795 62.4944 11.5625 62.6553 11.2129C62.8219 10.8499 62.9164 10.458 62.9335 10.0589V9.92202C62.9335 9.5047 62.8556 9.10686 62.6992 8.7285C62.5474 8.35798 62.3269 8.01949 62.0493 7.73085C61.7704 7.44292 61.4382 7.21198 61.0711 7.05091C60.6869 6.88202 60.2712 6.79667 59.8515 6.80052C59.428 6.80052 59.0408 6.88398 58.693 7.05091C58.3499 7.21202 58.0448 7.44394 57.7977 7.7314C57.546 8.02468 57.3521 8.36301 57.2263 8.7285C57.0905 9.1117 57.022 9.51548 57.0238 9.92202ZM77.7658 14.6082C77.5895 14.784 77.3964 14.9732 77.1833 15.1757C76.9718 15.3777 76.7398 15.5669 76.4855 15.7427C76.2313 15.9185 75.9569 16.0643 75.662 16.1795C75.3593 16.2943 75.0377 16.3519 74.7139 16.3492C73.8275 16.3492 73.0102 16.1839 72.2623 15.8512C71.5349 15.5311 70.88 15.0668 70.3371 14.4863C69.7974 13.9082 69.3762 13.2277 69.0741 12.4454C68.7697 11.663 68.6195 10.8217 68.6195 9.92202C68.6195 9.01561 68.7697 8.17208 69.0741 7.39199C69.3609 6.63925 69.7897 5.94864 70.3371 5.35773C70.879 4.77728 71.5343 4.31425 72.2623 3.99729C73.0102 3.66901 73.8275 3.50375 74.7139 3.50375C75.0728 3.50375 75.4011 3.55606 75.6965 3.66011C75.983 3.75901 76.2559 3.89341 76.5089 4.06017C76.7526 4.22543 76.9791 4.40793 77.1833 4.61436C77.3892 4.81856 77.5833 5.02054 77.7658 5.2164V0.742816C77.7658 0.534716 77.8309 0.358889 77.9567 0.215333C78.0847 0.0717778 78.2739 0 78.5287 0H80.7304C80.815 0 80.904 0.0194743 80.9997 0.0545286C81.0932 0.091252 81.18 0.141329 81.2585 0.20643C81.3364 0.271531 81.402 0.349986 81.4499 0.441238C81.5 0.53249 81.5239 0.632645 81.5239 0.743372V15.371C81.5239 15.8729 81.2585 16.1249 80.7304 16.1249H78.813C78.6828 16.1249 78.581 16.1083 78.5092 16.0749C78.4384 16.0434 78.3763 15.9951 78.3284 15.9341C78.2737 15.8623 78.2291 15.7833 78.196 15.6993C78.157 15.6058 78.1092 15.4951 78.0502 15.371L77.7658 14.6082ZM72.1405 9.92202C72.1405 10.3521 72.2078 10.7544 72.3408 11.1306C72.4662 11.4896 72.6609 11.8204 72.9139 12.1043C73.1621 12.378 73.4597 12.5956 73.8075 12.7542C74.158 12.915 74.5448 12.9934 74.9682 12.9934C75.3719 12.9964 75.7723 12.9203 76.1467 12.7692C76.5055 12.6264 76.8332 12.4154 77.1115 12.1477C77.3873 11.8794 77.6112 11.5625 77.772 11.2129C77.9386 10.8499 78.0331 10.458 78.0502 10.0589V9.92202C78.0505 9.10412 77.7324 8.31824 77.1633 7.73085C76.8853 7.44202 76.5531 7.21095 76.1856 7.05091C75.8022 6.88182 75.3872 6.79646 74.9682 6.80052C74.5448 6.80052 74.1575 6.88398 73.8075 7.05091C73.4654 7.21263 73.1611 7.44448 72.9145 7.7314C72.6628 8.02511 72.4682 8.36329 72.3408 8.7285C72.2068 9.11209 72.1391 9.51569 72.1405 9.92202ZM84.1257 0.753944C84.1257 0.545288 84.1774 0.36946 84.2815 0.225905C84.3861 0.0823497 84.5664 0.011128 84.8212 0.011128H87.2183C87.2833 0.011128 87.3507 0.0278206 87.4225 0.0651005C87.4948 0.100155 87.5616 0.149676 87.6228 0.215333C87.6856 0.280434 87.7379 0.358889 87.7786 0.450141C87.8225 0.541393 87.8442 0.643217 87.8442 0.753944V15.371C87.8442 15.6186 87.7724 15.8078 87.6333 15.9341C87.492 16.0621 87.3117 16.1249 87.0903 16.1249H84.8206C84.5664 16.1249 84.3867 16.0621 84.282 15.9341C84.1774 15.8078 84.1251 15.6186 84.1251 15.371L84.1257 0.753944ZM100.601 14.6388C100.034 15.1627 99.3781 15.5814 98.6643 15.8751C97.9465 16.1728 97.1859 16.3208 96.3841 16.3208C95.4905 16.3208 94.6475 16.1578 93.8518 15.8317C93.0731 15.5179 92.3617 15.0575 91.7564 14.4757C91.1533 13.8947 90.6685 13.2024 90.3286 12.437C89.9764 11.6541 89.8 10.8023 89.8 9.88307C89.8 9.30884 89.8701 8.75243 90.0115 8.21382C90.1506 7.67688 90.3503 7.17276 90.6068 6.70315C90.8653 6.23377 91.1806 5.79798 91.5455 5.40558C92.2869 4.61393 93.2289 4.03786 94.2714 3.73856C94.8055 3.58165 95.3709 3.50375 95.9646 3.50375C96.5054 3.50375 97.0295 3.57553 97.5403 3.71909C98.5438 4.00016 99.4592 4.53189 100.201 5.26425C100.568 5.62364 100.89 6.0265 101.159 6.46389C101.426 6.89622 101.633 7.35972 101.781 7.8527C101.927 8.34402 102 8.85258 102 9.3745C102 9.71336 101.996 9.98934 101.985 10.2047C101.976 10.42 101.927 10.5914 101.835 10.7199C101.743 10.8457 101.592 10.9347 101.378 10.9825C101.168 11.0326 100.855 11.0565 100.444 11.0565H93.3995C93.4651 11.4739 93.5976 11.8238 93.7973 12.1043C93.9954 12.3847 94.2258 12.6084 94.4862 12.7736C94.7477 12.9406 95.0259 13.0585 95.3191 13.1298C95.5905 13.1992 95.8692 13.2358 96.1493 13.2388C96.3841 13.2388 96.625 13.2149 96.8726 13.1648C97.1171 13.1182 97.3576 13.0529 97.5921 12.9695C97.8121 12.8936 98.0253 12.7991 98.2292 12.6868C98.4206 12.5778 98.5769 12.4648 98.6943 12.3474C98.7984 12.2629 98.888 12.2 98.9614 12.1583C99.0347 12.1155 99.1181 12.0931 99.2029 12.0932C99.2875 12.0932 99.3748 12.1238 99.4616 12.1822C99.5507 12.2412 99.6486 12.3257 99.7593 12.437L100.796 13.6105C100.868 13.6951 100.913 13.7713 100.933 13.8409C100.953 13.9082 100.963 13.98 100.963 14.0517C100.966 14.1729 100.928 14.2914 100.855 14.3884C100.783 14.4818 100.699 14.5664 100.601 14.6388ZM95.895 6.48781C95.6407 6.48781 95.3948 6.53789 95.1561 6.64027C94.9191 6.74043 94.6948 6.87452 94.4862 7.04423C94.2772 7.21507 94.0885 7.40922 93.9236 7.6229C93.7652 7.82643 93.629 8.04636 93.5174 8.27892H98.5185C98.3867 8.03389 98.2378 7.7985 98.0728 7.57449C97.9152 7.36213 97.731 7.17083 97.5247 7.00528C97.3132 6.83976 97.0752 6.71109 96.8209 6.62469C96.5555 6.53344 96.2472 6.48781 95.895 6.48781Z" fill="white"/>
</svg>
