<svg width="28" height="29" viewBox="0 0 28 29" fill="none" xmlns="http://www.w3.org/2000/svg">
<path d="M7.65675 12.197C7.2417 11.4038 7.17729 10.4504 7.47656 9.55248L7.47904 9.54503L7.4791 9.54505L7.64233 9.07977L7.9047 8.33194L8.46669 8.89073L9.0977 9.51818C9.09813 9.5186 9.09857 9.51902 9.099 9.51945C10.2913 10.687 11.6791 11.3857 13.2642 11.6124C13.2219 10.1983 14.1148 8.93869 15.4711 8.4458L15.4762 8.44395L15.4762 8.44398C15.7629 8.34328 16.1168 8.29545 16.452 8.28742C16.789 8.27935 17.1503 8.31048 17.4557 8.39512L17.4671 8.39829L17.4671 8.39843C17.7293 8.47786 18.1425 8.70357 18.4175 8.88869L18.4194 8.88997L18.6889 9.07323L18.9758 8.98206L18.9822 8.98001L18.9823 8.98005C19.2608 8.89565 19.6031 8.76272 19.7275 8.6929L19.7365 8.68787L19.7365 8.68796C19.8348 8.63546 19.9365 8.58942 20.0245 8.55918C20.0626 8.54609 20.1269 8.52568 20.1982 8.51762C20.2247 8.51463 20.3137 8.50491 20.4179 8.53646C20.4752 8.55384 20.5688 8.59327 20.6503 8.68427C20.7404 8.78489 20.7794 8.9082 20.7794 9.02234C20.7794 9.12011 20.7556 9.20507 20.7392 9.25572C20.7204 9.31371 20.6963 9.37076 20.6718 9.42304C20.6417 9.48705 20.6058 9.55444 20.5665 9.62248C20.5772 9.62238 20.5882 9.62256 20.5994 9.62308C20.6656 9.62619 20.8656 9.64756 21.0045 9.83641C21.1383 10.0185 21.1048 10.209 21.0934 10.263C21.0789 10.3312 21.0538 10.387 21.0424 10.4117C21.0286 10.4417 21.0128 10.472 21.0013 10.4941L20.9948 10.5066L20.9877 10.5187C20.9296 10.6163 20.806 10.7618 20.6919 10.8894C20.564 11.0326 20.4032 11.2026 20.2367 11.3656C19.9495 11.6504 19.8716 11.7417 19.8402 11.7996C19.8397 11.8004 19.8392 11.8013 19.8387 11.8022C19.8312 11.8149 19.8193 11.835 19.8193 12.0467C19.8193 12.4475 19.7276 13.0217 19.603 13.5744C19.4771 14.1325 19.3065 14.7171 19.1285 15.1456C19.1283 15.146 19.1282 15.1464 19.128 15.1467L18.6663 14.9548L7.65675 12.197ZM7.65675 12.197C7.59654 12.2075 7.44888 12.2447 7.33826 12.3854C7.25719 12.4868 7.23605 12.5913 7.22973 12.6244C7.21925 12.6794 7.21793 12.7285 7.21816 12.7607C7.21864 12.8272 7.22685 12.8959 7.23586 12.9546C7.25453 13.0761 7.28738 13.2223 7.32584 13.3679C7.40024 13.6496 7.5144 14.0001 7.63188 14.2254C7.81289 14.5762 8.09443 14.9095 8.42516 15.1894C8.41454 15.2014 8.40417 15.2142 8.39414 15.2278C8.31781 15.3311 8.29093 15.4406 8.28479 15.5272C8.27593 15.652 8.31099 15.7721 8.32233 15.8109C8.32315 15.8137 8.32384 15.8161 8.32439 15.818L8.32429 15.8181L8.32718 15.8275C8.45914 16.2606 8.76625 16.6593 9.12712 16.9784C9.384 17.2056 9.68569 17.4082 10.0108 17.5668C9.41566 17.8365 8.75457 17.9885 8.09379 18.0027L7.65675 12.197ZM20.626 10.6181C20.629 10.6174 20.6283 10.6177 20.6246 10.6184L20.626 10.6181ZM20.3567 9.5026C20.3565 9.50268 20.3554 9.50304 20.3534 9.50359C20.3558 9.5028 20.3569 9.50252 20.3567 9.5026ZM19.788 8.94727C19.7879 8.94748 19.7878 8.94769 19.7877 8.94792L19.7888 8.94443C19.7888 8.94458 19.7885 8.94551 19.788 8.94727ZM0.953735 14.2769C0.953735 6.97195 6.87564 1.05005 14.1806 1.05005C21.4856 1.05005 27.4075 6.97195 27.4075 14.2769C27.4075 21.5819 21.4856 27.5038 14.1806 27.5038C6.87564 27.5038 0.953735 21.5819 0.953735 14.2769Z" fill="#674BAF" stroke="white"/>
</svg>
